<svg width="88" height="88" viewBox="0 0 88 88" fill="none" xmlns="http://www.w3.org/2000/svg">
<rect width="87.9998" height="87.9998" rx="43.914" fill="#00AB45" fill-opacity="0.05"/>
<path d="M44.546 47.1159C45.6563 47.2297 46.6849 47.7513 47.4328 48.5797C48.1807 49.4082 48.5948 50.4846 48.5949 51.6006C48.5949 53.9182 47.1822 55.8359 45.2824 57.1014C43.3737 58.3759 40.8187 59.1153 38.0744 59.1153C35.33 59.1153 32.775 58.3759 30.8663 57.1014C28.9636 55.8389 27.5538 53.9182 27.5538 51.6006C27.5538 50.4048 28.0288 49.258 28.8744 48.4124C29.72 47.5669 30.8668 47.0918 32.0626 47.0918H44.0861L44.546 47.1159ZM56.1036 47.0918C57.2994 47.0918 58.4462 47.5669 59.2918 48.4124C60.1373 49.258 60.6124 50.4048 60.6124 51.6006C60.6124 53.6897 59.3169 55.2408 57.6576 56.1936C56.0104 57.1405 53.8552 57.6124 51.5948 57.6124C50.8353 57.6104 50.0938 57.5553 49.3704 57.4471C50.0738 56.6174 50.663 55.6646 51.0567 54.5915C51.2351 54.6015 51.4144 54.6065 51.5948 54.6065C53.4855 54.6065 55.0876 54.2067 56.1607 53.5905C57.2218 52.9803 57.6065 52.277 57.6065 51.6006C57.6065 51.202 57.4482 50.8198 57.1663 50.5379C56.8845 50.2561 56.5022 50.0977 56.1036 50.0977H51.4445C51.218 49.007 50.7519 47.9803 50.0798 47.0918H56.1036ZM32.0626 50.0977C31.664 50.0977 31.2817 50.2561 30.9999 50.5379C30.718 50.8198 30.5597 51.202 30.5597 51.6006C30.5597 52.6016 31.1699 53.6927 32.5315 54.6005C33.8842 55.5023 35.838 56.1095 38.0744 56.1095C40.3077 56.1095 42.2645 55.5023 43.6172 54.6005C44.9788 53.6927 45.589 52.6016 45.589 51.6006C45.5891 51.2542 45.4695 50.9183 45.2504 50.6499C45.0313 50.3815 44.7262 50.1971 44.3867 50.1278L44.0861 50.0977H32.0626ZM38.7687 30.5866C40.4357 30.7577 41.9801 31.5407 43.1033 32.7844C44.2265 34.0281 44.8487 35.644 44.8496 37.3198L44.8135 38.0111C44.6411 39.677 43.8574 41.22 42.6139 42.3419C41.3704 43.4639 39.7552 44.0852 38.0804 44.086L37.389 44.0499C35.8405 43.8919 34.3939 43.2046 33.2932 42.1039C32.1925 41.0033 31.5052 39.5566 31.3472 38.0081L31.3112 37.3167C31.3112 35.5212 32.0242 33.7991 33.2936 32.5291C34.563 31.2592 36.2848 30.5453 38.0804 30.5445L38.7687 30.5866ZM52.3523 33.5564C53.043 33.5564 53.7271 33.6925 54.3653 33.9568C55.0035 34.2212 55.5834 34.6086 56.0718 35.0971C56.5603 35.5856 56.9478 36.1655 57.2121 36.8037C57.4765 37.4419 57.6125 38.1259 57.6125 38.8167C57.6125 39.5075 57.4765 40.1915 57.2121 40.8297C56.9478 41.4679 56.5603 42.0478 56.0718 42.5363C55.5834 43.0247 55.0035 43.4122 54.3653 43.6765C53.7271 43.9409 53.043 44.077 52.3523 44.077C50.9571 44.077 49.6192 43.5227 48.6327 42.5363C47.6462 41.5498 47.092 40.2118 47.092 38.8167C47.092 37.4216 47.6462 36.0836 48.6327 35.0971C49.6192 34.1106 50.9571 33.5564 52.3523 33.5564ZM38.0804 33.5564C37.5862 33.5564 37.0968 33.6537 36.6402 33.8429C36.1836 34.032 35.7687 34.3092 35.4193 34.6587C35.0698 35.0081 34.7926 35.423 34.6035 35.8796C34.4144 36.3362 34.317 36.8255 34.317 37.3198C34.317 37.814 34.4144 38.3033 34.6035 38.7599C34.7926 39.2165 35.0698 39.6314 35.4193 39.9808C35.7687 40.3303 36.1836 40.6075 36.6402 40.7966C37.0968 40.9858 37.5862 41.0831 38.0804 41.0831C39.0785 41.0831 40.0357 40.6866 40.7415 39.9808C41.4472 39.2751 41.8437 38.3179 41.8437 37.3198C41.8437 36.3217 41.4472 35.3644 40.7415 34.6587C40.0357 33.9529 39.0785 33.5564 38.0804 33.5564ZM52.3523 36.5623C51.7543 36.5623 51.1809 36.7998 50.7581 37.2226C50.3354 37.6454 50.0978 38.2188 50.0978 38.8167C50.0978 39.4146 50.3354 39.988 50.7581 40.4108C51.1809 40.8336 51.7543 41.0711 52.3523 41.0711C52.9502 41.0711 53.5236 40.8336 53.9464 40.4108C54.3691 39.988 54.6067 39.4146 54.6067 38.8167C54.6067 38.2188 54.3691 37.6454 53.9464 37.2226C53.5236 36.7998 52.9502 36.5623 52.3523 36.5623Z" fill="#00AB45"/>
</svg>
