<svg width="88" height="88" viewBox="0 0 88 88" fill="none" xmlns="http://www.w3.org/2000/svg">
<rect width="87.9998" height="87.9998" rx="43.914" fill="#00AB45" fill-opacity="0.05"/>
<path d="M48.5949 47.4677H46.3405V40.7045H48.5949V47.4677ZM48.5949 53.1037V58.7397C48.5949 59.0387 48.4762 59.3254 48.2648 59.5368C48.0534 59.7482 47.7667 59.8669 47.4677 59.8669H40.7045C40.4055 59.8669 40.1188 59.7482 39.9074 59.5368C39.6961 59.3254 39.5773 59.0387 39.5773 58.7397V53.1037H41.8317V57.6125H46.3405V53.1037H48.5949ZM39.5773 47.4677V40.7045H41.8317V47.4677H39.5773ZM48.5949 35.0685H46.3405V30.5597H41.8317V35.0685H39.5773V29.4325C39.5773 29.1335 39.6961 28.8468 39.9074 28.6354C40.1188 28.424 40.4055 28.3053 40.7045 28.3053H47.4677C47.7667 28.3053 48.0534 28.424 48.2648 28.6354C48.4762 28.8468 48.5949 29.1335 48.5949 29.4325V35.0685Z" fill="#00AB45"/>
<path d="M33.8287 35.0685L31.3206 37.8865L33.8251 40.7045H53.1038V35.0685H33.8287ZM33.3214 32.8141H54.231C54.53 32.8141 54.8167 32.9328 55.0281 33.1442C55.2394 33.3556 55.3582 33.6423 55.3582 33.9413V41.8317C55.3582 42.1307 55.2394 42.4174 55.0281 42.6288C54.8167 42.8401 54.53 42.9589 54.231 42.9589H33.3214C33.1616 42.9591 33.0035 42.9252 32.8578 42.8596C32.712 42.794 32.5819 42.6982 32.476 42.5785L28.9746 38.6333C28.7924 38.4272 28.6918 38.1616 28.6918 37.8865C28.6918 37.6114 28.7924 37.3458 28.9746 37.1397L32.4831 33.1945C32.5885 33.0752 32.7181 32.9797 32.8632 32.9141C33.0083 32.8485 33.1657 32.8144 33.3249 32.8141M57.2357 50.2857L54.7242 53.1037H35.449V47.4677H54.7242L57.2357 50.2857ZM55.2349 45.2133H34.3288C34.0299 45.2133 33.7432 45.3321 33.5318 45.5435C33.3204 45.7548 33.2016 46.0416 33.2016 46.3405V54.2309C33.2016 54.5299 33.3204 54.8166 33.5318 55.028C33.7432 55.2394 34.0299 55.3581 34.3288 55.3581H55.2384C55.3983 55.3583 55.5563 55.3244 55.7021 55.2588C55.8478 55.1933 55.9779 55.0974 56.0838 54.9777L59.5887 51.0325C59.771 50.8264 59.8716 50.5608 59.8716 50.2857C59.8716 50.0106 59.771 49.745 59.5887 49.5389L56.0803 45.5937C55.9744 45.474 55.8443 45.3782 55.6985 45.3126C55.5528 45.247 55.3947 45.2132 55.2349 45.2133Z" fill="#00AB45"/>
</svg>
